# xmcd CD database file
#
# Track frame offsets:
#	150
#	25078
#	37126
#	52962
#	66484
#	95282
#	117299
#	131177
#	150678
#	164443
#	179430
#
# Disc length: 2681 seconds
#
# Revision: 1
# Processed by: cddbd v1.5.2PL0 Copyright (c) Steve Scherf et al.
# Submitted via: jetAudio 5
#
DISCID=980a770b
DTITLE=Willie Nelson - Songbird
DYEAR=1900
DGENRE=
TTITLE0=Rainy Day Bluess
TTITLE1=Songbird
TTITLE2=Blue Hotel
TTITLE3=Back To Earth
TTITLE4=Stella Blue
TTITLE5=Hallelujah
TTITLE6=$1000 Wedding
TTITLE7=We Don't Run
TTITLE8=Yours Love
TTITLE9=Sad Songs And Waltzes
TTITLE10=Amazing Grace
EXTD=2006
EXTT0=
EXTT1=
EXTT2=
EXTT3=
EXTT4=
EXTT5=
EXTT6=
EXTT7=
EXTT8=
EXTT9=
EXTT10=
PLAYORDER=
